<svg width="58" height="60" viewBox="0 0 58 60" fill="none" xmlns="http://www.w3.org/2000/svg">
<path d="M28.5665 31.5857C19.8547 31.5857 12.7678 24.4988 12.7678 15.7871C12.7678 7.07539 19.8547 0 28.5665 0C37.2782 0 44.3651 7.08691 44.3651 15.7986C44.3651 24.5104 37.2782 31.5857 28.5665 31.5857ZM28.5665 2.35078C21.1569 2.35078 15.1301 8.37754 15.1301 15.7871C15.1301 23.1967 21.1569 29.235 28.5665 29.235C35.976 29.235 42.0028 23.2082 42.0028 15.7986C42.0028 8.38906 35.976 2.35078 28.5665 2.35078Z" fill="white"/>
<path d="M55.9809 59.2436C55.3355 59.2436 54.8055 58.7135 54.8055 58.0682C54.8055 43.6062 43.04 31.8408 28.5781 31.8408C14.1162 31.8408 2.35078 43.6062 2.35078 58.0682C2.35078 58.7135 1.8207 59.2436 1.17539 59.2436C0.530078 59.2436 0 58.7135 0 58.0682C0 50.4281 2.97305 43.249 8.37754 37.8561C13.782 32.4631 20.9611 29.4785 28.5897 29.4785C36.2182 29.4785 43.4088 32.4516 48.8018 37.8561C54.1947 43.2605 57.1793 50.4396 57.1793 58.0682C57.1563 58.7135 56.6262 59.2436 55.9809 59.2436Z" fill="white"/>
</svg>
